<svg xmlns="http://www.w3.org/2000/svg" viewBox="0 0 64 64">
  <rect width="64" height="64" rx="14" fill="#fbf7ee"/>
  <g transform="scale(0.355556)">

  <defs>
    <radialGradient id="bg" cx="50%" cy="34%" r="88%">
      <stop offset="0%" stop-color="#fffef8"/>
      <stop offset="55%" stop-color="#fbf7ee"/>
      <stop offset="100%" stop-color="#efe4cb"/>
    </radialGradient>
    <linearGradient id="gold" x1="0" y1="0" x2="0" y2="1">
      <stop offset="0%" stop-color="#c69c3f"/>
      <stop offset="100%" stop-color="#8a6625"/>
    </linearGradient>
    <linearGradient id="ring" x1="0" y1="0" x2="1" y2="1">
      <stop offset="0%" stop-color="#dcc78f"/>
      <stop offset="100%" stop-color="#b2944c"/>
    </linearGradient>
  </defs>
  <circle cx="90" cy="96" r="72" fill="none" stroke="url(#ring)" stroke-width="2" opacity="0.5"/>
  <circle cx="90" cy="96" r="62" fill="none" stroke="#e6ddc9" stroke-width="1.5" opacity="0.9"/>
  <path d="M131 41.5 L134.1 52.1 L138.5 49 L134.1 45.9 L131 56.5 L127.9 45.9 L123.5 49 L127.9 52.1 Z" fill="#c9a951" opacity="0.7"/>
  <path d="M49 123.5 L52.1 134.1 L56.5 131 L52.1 127.9 L49 138.5 L45.9 127.9 L41.5 131 L45.9 134.1 Z" fill="#c9a951" opacity="0.5"/>
  
  <rect x="56" y="85" width="68" height="22" rx="11" fill="url(#gold)" stroke="#6f5420" stroke-width="2"/>
  <rect x="79" y="44" width="22" height="104" rx="11" fill="url(#gold)" stroke="#6f5420" stroke-width="2"/>

  </g>
</svg>
